<svg width="1280" height="800" viewBox="0 0 1280 800" xmlns="http://www.w3.org/2000/svg">
  <defs>
    <linearGradient id="screenGlow" x1="0%" y1="0%" x2="100%" y2="100%">
      <stop offset="0%" stop-color="#DFF1E6" />
      <stop offset="100%" stop-color="#A5CDB4" />
    </linearGradient>
    <linearGradient id="phoneBody" x1="0%" y1="0%" x2="0%" y2="100%">
      <stop offset="0%" stop-color="#FDF8F0" />
      <stop offset="100%" stop-color="#E5DBCE" />
    </linearGradient>
  </defs>
  <rect width="1280" height="800" rx="60" fill="#F9F4EC" />
  <ellipse cx="640" cy="730" rx="420" ry="40" fill="rgba(0,0,0,0.07)" />
  <g id="Laptop" transform="translate(160 140)">
    <rect x="0" y="0" width="960" height="540" rx="32" fill="#FFFFFF" stroke="#DAD5CA" stroke-width="6" />
    <rect x="40" y="40" width="880" height="440" rx="20" fill="url(#screenGlow)" />
    <rect x="80" y="80" width="360" height="16" rx="8" fill="rgba(255,255,255,0.5)" />
    <rect x="80" y="120" width="500" height="12" rx="6" fill="rgba(255,255,255,0.35)" />
    <rect x="80" y="150" width="420" height="12" rx="6" fill="rgba(255,255,255,0.35)" />
    <rect x="80" y="180" width="380" height="12" rx="6" fill="rgba(255,255,255,0.35)" />
    <rect x="80" y="220" width="560" height="260" rx="24" fill="rgba(255,255,255,0.25)" />
    <rect x="680" y="80" width="180" height="16" rx="8" fill="#F1D2D8" />
    <rect x="680" y="120" width="220" height="180" rx="16" fill="#FFFFFF" opacity="0.7" />
    <rect x="40" y="500" width="880" height="24" rx="12" fill="#D8D0C7" />
    <rect x="220" y="524" width="520" height="50" rx="16" fill="#E6DFD4" />
  </g>
  <g id="Phone" transform="translate(920 360)">
    <rect x="0" y="0" width="220" height="420" rx="48" fill="url(#phoneBody)" />
    <rect x="24" y="60" width="172" height="300" rx="24" fill="#FFFFFF" stroke="#D7E4D7" stroke-width="4" />
    <rect x="44" y="90" width="132" height="18" rx="9" fill="#F1D2D8" />
    <rect x="44" y="130" width="112" height="10" rx="5" fill="rgba(0,0,0,0.15)" />
    <rect x="44" y="150" width="90" height="10" rx="5" fill="rgba(0,0,0,0.15)" />
    <rect x="44" y="180" width="132" height="150" rx="18" fill="#F7FBF5" />
    <rect x="92" y="24" width="36" height="4" rx="2" fill="#D2C6B7" />
    <circle cx="110" cy="390" r="16" fill="#D2C6B7" />
  </g>
</svg>
