<svg width="960" height="540" viewBox="0 0 960 540" xmlns="http://www.w3.org/2000/svg">
  <defs>
    <linearGradient id="deskGradient" x1="0%" y1="0%" x2="0%" y2="100%">
      <stop offset="0%" stop-color="#FDF6EB" />
      <stop offset="100%" stop-color="#EBDCC8" />
    </linearGradient>
    <linearGradient id="screenGradient" x1="0%" y1="0%" x2="100%" y2="100%">
      <stop offset="0%" stop-color="#BEE3CF" />
      <stop offset="100%" stop-color="#83B096" />
    </linearGradient>
    <linearGradient id="wallGradient" x1="0%" y1="0%" x2="0%" y2="100%">
      <stop offset="0%" stop-color="#FBF9F2" />
      <stop offset="100%" stop-color="#F2EEE5" />
    </linearGradient>
  </defs>
  <rect width="960" height="540" fill="url(#wallGradient)" />
  <circle cx="160" cy="120" r="100" fill="#F5E7EA" opacity="0.35" />
  <circle cx="820" cy="80" r="70" fill="#D7F2E2" opacity="0.4" />
  <rect y="360" width="960" height="180" fill="url(#deskGradient)" />
  <rect x="280" y="120" width="400" height="260" rx="32" fill="#FFFFFF" stroke="#DCE8DC" stroke-width="4" />
  <rect x="310" y="150" width="340" height="180" rx="16" fill="#0B1C12" opacity="0.7" />
  <rect x="320" y="160" width="320" height="160" rx="12" fill="url(#screenGradient)" />
  <path d="M320 210h320" stroke="rgba(255,255,255,0.35)" stroke-width="2" />
  <path d="M320 250h220" stroke="rgba(255,255,255,0.35)" stroke-width="2" />
  <path d="M320 290h180" stroke="rgba(255,255,255,0.35)" stroke-width="2" />
  <rect x="250" y="370" width="460" height="70" rx="20" fill="#E8DFD2" />
  <ellipse cx="480" cy="450" rx="280" ry="30" fill="rgba(0,0,0,0.07)" />
  <g id="MatchaCup" transform="translate(620 300)">
    <rect x="0" y="0" width="120" height="60" rx="30" fill="#FFFDF9" stroke="#CDECD2" stroke-width="3" />
    <path d="M120 30c18 0 30 18 24 35" fill="none" stroke="#CDECD2" stroke-width="5" stroke-linecap="round" />
    <ellipse cx="60" cy="30" rx="45" ry="16" fill="#A6D88D" />
    <path d="M38 30c10-8 24-8 34 0" fill="none" stroke="rgba(255,255,255,0.7)" stroke-width="4" stroke-linecap="round" />
  </g>
  <g id="Notebooks" fill="#F4E4D9">
    <rect x="140" y="330" width="120" height="16" rx="8" />
    <rect x="130" y="346" width="140" height="18" rx="9" fill="#F1D2D8" />
    <rect x="120" y="364" width="160" height="20" rx="10" fill="#DBF0E5" />
  </g>
  <g id="Plant">
    <path d="M180 220c-30-40-10-90 36-104-12 30 14 60 44 65-32 8-54 40-40 69-14-4-28-14-40-30z" fill="#A4D4A2" />
    <rect x="200" y="300" width="40" height="60" rx="8" fill="#E6CDB5" />
    <rect x="190" y="360" width="60" height="20" rx="10" fill="#C6B39E" />
  </g>
  <g id="Particles" fill="#BEDFC9" opacity="0.6">
    <circle cx="120" cy="80" r="4" />
    <circle cx="760" cy="140" r="3" />
    <circle cx="700" cy="60" r="5" />
    <circle cx="840" cy="200" r="6" />
    <circle cx="860" cy="120" r="3" />
    <circle cx="180" cy="260" r="4" />
  </g>
  <g id="Sparkles" stroke="#F3D2D6" stroke-width="3" stroke-linecap="round">
    <path d="M800 260l6 16 16 6-16 6-6 16-6-16-16-6 16-6z" />
    <path d="M120 180l4 12 12 4-12 4-4 12-4-12-12-4 12-4z" opacity="0.7" />
  </g>
</svg>
